PathFileType	4	(X/Y/Z)	/Users/itak/Documents/Research/Walk-IL/dataset/trc/00111_00007.trc
DataRate	CameraRate	NumFrames	NumMarkers	Units	OrigDataRate	OrigDataStartFrame	OrigNumFrames
100.000000	100.000000	4	53	mm	100.000000	345	552
Frame#	Time	RPSI			LPSI			L3			STRN			T10			C7			CLAV			RBAK			LBAK			LSHO			LUPA			LAEL			LAOL			LWTS			LWPS			LFRA			LIFD			LHPS			LHTS			RSHO			RUPA			RAEL			RAOL			RWTS			RWPS			RFRA			RIFD			RHTS			RHPS			RBHD			LFHD			RFHD			LBHD			LHIP			RHIP			RASI			LASI			LKNE			LTHI			LANK			LTIP			LTOE			LMT1			LMT5			LHEE			RKNE			RTHI			RANK			RTIP			RTOE			RMT1			RMT5			RHEE			
		X1	Y1	Z1	X2	Y2	Z2	X3	Y3	Z3	X4	Y4	Z4	X5	Y5	Z5	X6	Y6	Z6	X7	Y7	Z7	X8	Y8	Z8	X9	Y9	Z9	X10	Y10	Z10	X11	Y11	Z11	X12	Y12	Z12	X13	Y13	Z13	X14	Y14	Z14	X15	Y15	Z15	X16	Y16	Z16	X17	Y17	Z17	X18	Y18	Z18	X19	Y19	Z19	X20	Y20	Z20	X21	Y21	Z21	X22	Y22	Z22	X23	Y23	Z23	X24	Y24	Z24	X25	Y25	Z25	X26	Y26	Z26	X27	Y27	Z27	X28	Y28	Z28	X29	Y29	Z29	X30	Y30	Z30	X31	Y31	Z31	X32	Y32	Z32	X33	Y33	Z33	X34	Y34	Z34	X35	Y35	Z35	X36	Y36	Z36	X37	Y37	Z37	X38	Y38	Z38	X39	Y39	Z39	X40	Y40	Z40	X41	Y41	Z41	X42	Y42	Z42	X43	Y43	Z43	X44	Y44	Z44	X45	Y45	Z45	X46	Y46	Z46	X47	Y47	Z47	X48	Y48	Z48	X49	Y49	Z49	X50	Y50	Z50	X51	Y51	Z51	X52	Y52	Z52	X53	Y53	Z53	

346	3.45	-672.6453857421875	1100.162231445312	-272.9105529785156	-661.2265625	1105.04931640625	-408.4105529785156	-672.6171264648438	1144.485107421875	-347.2022705078125	-427.3275451660156	1329.8056640625	-333.8371276855469	-688.6152954101562	1301.49658203125	-357.3223571777344	-622.5475463867188	1588.247802734375	-373.4044494628906	-449.8000183105469	1468.038208007812	-340.1168823242188	-699.284423828125	1407.49755859375	-293.3099365234375	-617.8369140625	1570.317993164062	-475.6287231445312	-523.3388061523438	1551.398071289062	-529.327880859375	-533.29541015625	1420.93896484375	-602.7982788085938	-504.5489501953125	1202.4541015625	-622.4910888671875	-583.0751953125	1186.187744140625	-585.9474487304688	-394.6378784179688	959.710205078125	-542.6052856445312	-459.7171325683594	923.7982788085938	-589.5191650390625	-476.742919921875	1088.573120117188	-617.8812255859375	-365.8531188964844	771.1055908203125	-508.3691101074219	-423.4503784179688	853.0513305664062	-578.5419311523438	-365.6500854492188	873.388916015625	-545.2393188476562	-594.2034301757812	1564.785522460938	-186.3809814453125	-624.1353759765625	1492.035766601562	-127.2443695068359	-652.0810546875	1200.082397460938	-104.9946975708008	-631.1771240234375	1194.567504882812	-199.6192932128906	-508.65478515625	962.1792602539062	-61.74937438964844	-587.677734375	943.6915283203125	-53.6792106628418	-633.8182373046875	1127.642944335938	-79.63881683349609	-475.0530700683594	768.0892944335938	-57.19182586669922	-479.45458984375	855.9830322265625	-40.13326263427734	-551.5863647460938	846.3902587890625	-31.92818450927734	-591.2103881835938	1745.841552734375	-278.1149597167969	-423.1540832519531	1822.864624023438	-396.7236633300781	-431.9230651855469	1820.857666015625	-267.0189819335938	-590.8568725585938	1751.562744140625	-413.65234375	-565.3580932617188	1012.408203125	-511.5822448730469	-549.2491455078125	1006.246459960938	-146.7470855712891	-467.0079040527344	1078.58642578125	-203.1435852050781	-457.1007385253906	1070.262451171875	-465.1609497070312	-557.5092163085938	503.1929321289062	-457.1976928710938	-568.6427612304688	652.655029296875	-493.6650695800781	-830.732177734375	55.63896942138672	-457.5847778320312	-729.4729614257812	289.0967712402344	-490.3341369628906	-611.8392944335938	35.47195053100586	-368.1904602050781	-695.4785766601562	46.54767990112305	-349.1071166992188	-705.9639892578125	34.12071228027344	-465.7912292480469	-907.3515625	79.01808166503906	-406.5374450683594	-403.97998046875	541.6103515625	-165.1693572998047	-483.0770263671875	805.2908325195312	-139.7642517089844	-326.8974609375	21.69618034362793	-181.8981475830078	-387.4923095703125	409.3949890136719	-150.4827575683594	-106.3644638061523	83.69662475585938	-237.5790557861328	-165.8571319580078	72.12918090820312	-280.7980651855469	-191.3750915527344	42.60662841796875	-168.7171936035156	-386.8667602539062	25.14898872375488	-229.3423461914062	
347	3.46	-682.3869018554688	1099.6982421875	-274.4609069824219	-670.19140625	1105.156005859375	-409.8478698730469	-682.3812255859375	1144.51025390625	-348.7720642089844	-435.7809143066406	1329.882446289062	-334.7026062011719	-697.2865600585938	1301.879516601562	-358.7908325195312	-629.89697265625	1588.658447265625	-375.2839965820312	-457.6884155273438	1468.183349609375	-341.3977966308594	-707.4490356445312	1408.385498046875	-294.8291625976562	-625.0488891601562	1570.4580078125	-477.4688110351562	-530.5285034179688	1551.189086914062	-530.8602294921875	-540.083251953125	1420.753540039062	-604.3121948242188	-510.8780822753906	1202.369384765625	-624.071044921875	-589.6334838867188	1185.989624023438	-588.0822143554688	-401.5090637207031	959.4239501953125	-543.8783569335938	-466.153076171875	923.6210327148438	-591.4158935546875	-483.0873107910156	1088.480590820312	-619.4951782226562	-373.1532592773438	770.7263793945312	-509.7686157226562	-430.1343078613281	852.837646484375	-580.2496948242188	-372.5671081542969	873.0580444335938	-546.4690551757812	-602.0228271484375	1565.759643554688	-188.1314849853516	-632.098388671875	1493.001831054688	-128.9441223144531	-660.153564453125	1200.782104492188	-107.7025909423828	-638.3417358398438	1195.41162109375	-202.0372924804688	-516.87158203125	963.0578002929688	-62.81846618652344	-596.0005493164062	944.4061889648438	-56.08353424072266	-642.077392578125	1128.311279296875	-82.18601226806641	-482.8924865722656	769.0361328125	-57.56217956542969	-487.8069152832031	856.9419555664062	-40.63076782226562	-560.0489501953125	847.203369140625	-33.72357940673828	-598.2596435546875	1746.351318359375	-280.4873657226562	-429.9100646972656	1822.68310546875	-399.0899963378906	-438.8540649414062	1821.093994140625	-269.4071960449219	-597.7019653320312	1751.685546875	-416.0710144042969	-573.548095703125	1013.169616699219	-512.98876953125	-558.98486328125	1005.584838867188	-148.3289947509766	-476.714111328125	1078.642333984375	-203.9999389648438	-465.6760559082031	1070.782592773438	-465.9524230957031	-565.112548828125	504.2557983398438	-458.5766906738281	-576.4843139648438	653.5684814453125	-495.0086975097656	-831.5250854492188	53.30550003051758	-457.28515625	-733.57373046875	287.6128845214844	-490.9697265625	-611.9532470703125	35.32975769042969	-368.0864868164062	-695.830078125	46.02864456176758	-348.9731750488281	-706.1188354492188	34.04803848266602	-465.8873901367188	-908.5104370117188	74.96159362792969	-406.2117919921875	-408.3483581542969	542.877197265625	-165.4783325195312	-491.2439575195312	805.6897583007812	-140.3773193359375	-332.6306457519531	21.80263900756836	-181.2245635986328	-392.0046691894531	410.2901306152344	-150.6947784423828	-112.7338790893555	87.59852600097656	-234.5702209472656	-171.5782470703125	75.51582336425781	-278.4532470703125	-197.8094787597656	43.43196105957031	-166.9329986572266	-392.3719482421875	24.69892692565918	-228.9177398681641	
348	3.47	-691.8731079101562	1099.463623046875	-276.0193176269531	-678.9571533203125	1105.352661132812	-411.30615234375	-691.9461669921875	1144.664916992188	-350.3009948730469	-444.0953063964844	1330.1875	-335.5341491699219	-705.727294921875	1302.353881835938	-360.1042175292969	-637.2175903320312	1589.221435546875	-376.9451293945312	-465.5215759277344	1468.53759765625	-342.6184387207031	-715.505615234375	1409.43603515625	-296.0449829101562	-632.3334350585938	1570.730590820312	-479.0812072753906	-537.83984375	1551.13525390625	-532.2627563476562	-547.026611328125	1420.708374023438	-605.6615600585938	-517.2830200195312	1202.443969726562	-625.5093994140625	-596.2348022460938	1185.93994140625	-590.0111083984375	-408.5614624023438	959.1594848632812	-545.2278442382812	-472.8150939941406	923.5623779296875	-593.3552856445312	-489.5536499023438	1088.526733398438	-621.037109375	-380.7926330566406	770.312255859375	-511.364501953125	-437.1058044433594	852.6943969726562	-582.0748291015625	-379.7437133789062	872.7127685546875	-547.830078125	-609.6266479492188	1566.921875	-189.6914825439453	-639.771484375	1494.17236328125	-130.3822021484375	-668.0809936523438	1201.721313476562	-109.9994812011719	-645.6641235351562	1196.494262695312	-204.1299438476562	-525.0300903320312	964.0370483398438	-64.00997161865234	-604.224609375	945.2825927734375	-58.29684448242188	-650.1784057617188	1129.197143554688	-84.41641998291016	-490.80126953125	770.0604248046875	-58.42609786987305	-496.0926818847656	857.9481201171875	-41.49656677246094	-568.3992919921875	848.1121215820312	-35.57894515991211	-605.2009887695312	1747.055297851562	-282.7341613769531	-436.6334533691406	1822.633911132812	-401.4408264160156	-445.7074890136719	1821.528564453125	-271.7780151367188	-604.526123046875	1751.947509765625	-418.3806762695312	-581.4376220703125	1014.017883300781	-514.3880004882812	-568.4284057617188	1005.233459472656	-149.8890838623047	-486.1319885253906	1078.927490234375	-204.8527374267578	-474.0622863769531	1071.545166015625	-466.73583984375	-572.3862915039062	505.4141845703125	-459.7860412597656	-583.9535522460938	654.5635375976562	-496.2112426757812	-832.1482543945312	51.25526428222656	-457.0567626953125	-737.3485107421875	286.3582763671875	-491.5472106933594	-612.06494140625	35.17070770263672	-367.992431640625	-696.1460571289062	45.52192687988281	-348.8345947265625	-706.2257080078125	33.99325942993164	-465.9526672363281	-909.4356689453125	71.32067108154297	-405.9881286621094	-412.6263122558594	544.3402709960938	-165.8768615722656	-498.9836730957031	806.4142456054688	-141.0351409912109	-339.9081420898438	22.05631828308105	-180.4877319335938	-396.8042602539062	411.286376953125	-151.0422973632812	-120.5047073364258	90.98580169677734	-231.4173126220703	-178.6136474609375	78.24517059326172	-276.0018310546875	-205.7906799316406	44.50225830078125	-164.953857421875	-399.2918395996094	24.27551078796387	-228.5469512939453	
349	3.48	-701.0682983398438	1099.465087890625	-277.5828247070312	-687.5001831054688	1105.652587890625	-412.7869873046875	-701.2465209960938	1144.966186523438	-351.7860412597656	-452.2633972167969	1330.708374023438	-336.3306884765625	-713.9169311523438	1302.919677734375	-361.2900085449219	-644.5115356445312	1589.921630859375	-378.3977661132812	-473.294921875	1469.090087890625	-343.7792053222656	-723.4552001953125	1410.625	-296.9991760253906	-639.6862182617188	1571.134521484375	-480.4819946289062	-545.2601318359375	1551.232666015625	-533.5458374023438	-554.1290893554688	1420.795776367188	-606.8556518554688	-523.7951049804688	1202.666748046875	-626.803466796875	-602.9072875976562	1186.035278320312	-591.7144775390625	-415.7941284179688	958.9244384765625	-546.6617431640625	-479.7161560058594	923.6201171875	-595.3223876953125	-496.1683959960938	1088.704711914062	-622.5022583007812	-388.729736328125	769.880615234375	-513.173583984375	-444.3575134277344	852.6263427734375	-584.013427734375	-387.1676940917969	872.3716430664062	-549.3382568359375	-617.0311279296875	1568.23193359375	-191.0694427490234	-647.1840209960938	1495.510986328125	-131.5804748535156	-675.8499145507812	1202.870727539062	-111.8694305419922	-653.1437377929688	1197.771850585938	-205.8904724121094	-533.1016235351562	965.0880126953125	-65.32719421386719	-612.3272705078125	946.2989501953125	-60.27193832397461	-658.1021118164062	1130.27392578125	-86.31083679199219	-498.7613220214844	771.1294555664062	-59.80405426025391	-504.273681640625	858.9703979492188	-42.74945449829102	-576.6046142578125	849.0911254882812	-37.45842361450195	-612.0242919921875	1747.931030273438	-284.8309326171875	-443.3258361816406	1822.711303710938	-403.7670593261719	-452.4820251464844	1822.1474609375	-274.1200561523438	-611.3359375	1752.3330078125	-420.5651245117188	-589.03369140625	1014.933776855469	-515.7652587890625	-577.5636596679688	1005.205078125	-151.3940734863281	-495.2531127929688	1079.435180664062	-205.6977233886719	-482.2298889160156	1072.519653320312	-467.5116271972656	-579.4280395507812	506.6500549316406	-460.8091430664062	-591.13330078125	655.6166381835938	-497.2590026855469	-832.6576538085938	49.45332717895508	-456.8396911621094	-740.9479370117188	285.3281860351562	-492.0231628417969	-612.1615600585938	35.01447677612305	-367.9173583984375	-696.4261474609375	45.02975845336914	-348.683837890625	-706.3116455078125	33.96502304077148	-465.9707336425781	-910.1854248046875	68.03927612304688	-405.7663879394531	-416.8817138671875	545.9749755859375	-166.3873901367188	-506.3045043945312	807.4459228515625	-141.7577514648438	-348.7703552246094	22.46711730957031	-179.7323455810547	-401.9814453125	412.3708801269531	-151.5386962890625	-129.671142578125	93.80440521240234	-228.0939788818359	-186.9570770263672	80.27432250976562	-273.4137878417969	-215.3607940673828	45.81996154785156	-162.7546844482422	-407.6490783691406	23.90941047668457	-228.2986755371094	
